<svg width="240" height="200" viewBox="0 0 240 200" fill="none" xmlns="http://www.w3.org/2000/svg">
  <!-- Fond -->
  <rect x="20" y="20" width="200" height="160" rx="8" fill="#E0F7FA" />
  
  <!-- Décoration -->
  <circle cx="60" cy="40" r="28" fill="#B2EBF2" />
  <circle cx="180" cy="160" r="28" fill="#B2EBF2" />
  
  <!-- Formulaire -->
  <rect x="70" y="60" width="100" height="80" rx="4" fill="white" stroke="#006064" stroke-width="2" />
  
  <!-- Lignes du formulaire -->
  <line x1="90" y1="80" x2="150" y2="80" stroke="#006064" stroke-width="2" stroke-linecap="round" />
  <line x1="90" y1="100" x2="150" y2="100" stroke="#006064" stroke-width="2" stroke-linecap="round" />
  <line x1="90" y1="120" x2="150" y2="120" stroke="#006064" stroke-width="2" stroke-linecap="round" />
  
  <!-- Icône utilisateur -->
  <circle cx="120" cy="40" r="15" fill="#006064" />
  <circle cx="120" cy="35" r="5" fill="white" />
  <path d="M105 50C105 42 112 45 120 45C128 45 135 42 135 50" fill="#006064" />
  
  <!-- Bouton -->
  <rect x="90" y="140" width="60" height="20" rx="4" fill="#006064" />
  
  <!-- Checkmark -->
  <path d="M180 80L190 90L210 70" stroke="#00BCD4" stroke-width="4" stroke-linecap="round" stroke-linejoin="round" />
</svg> 